<svg id="Layer_1" data-name="Layer 1" xmlns="http://www.w3.org/2000/svg" viewBox="0 0 1326.44 251.62"><defs><style>.cls-1{fill:#1f9cb1;}.cls-2{fill:#fff;}</style></defs><path class="cls-1" d="M91.75,12.11,26.15,59.77a63.42,63.42,0,0,0-23,70.91L28.17,207.8a63.42,63.42,0,0,0,60.31,43.82h81.09a63.42,63.42,0,0,0,60.31-43.82l25.06-77.12a63.42,63.42,0,0,0-23-70.91L166.3,12.11A63.41,63.41,0,0,0,91.75,12.11Z"/><path class="cls-2" d="M130.67,71a1.9,1.9,0,0,1-1.89-1.9V35.26a1.89,1.89,0,0,1,3.78,0V69.11A1.89,1.89,0,0,1,130.67,71Z"/><path class="cls-2" d="M107,77.11a1.89,1.89,0,0,1-1.59-.87L87.11,47.76a1.9,1.9,0,0,1,3.19-2l18.3,28.48A1.88,1.88,0,0,1,108,76.8,1.82,1.82,0,0,1,107,77.11Z"/><path class="cls-2" d="M90.4,95a1.8,1.8,0,0,1-.78-.17L58.82,80.8a1.89,1.89,0,1,1,1.57-3.44l30.8,14.06A1.89,1.89,0,0,1,90.4,95Z"/><path class="cls-2" d="M52.61,123.91a1.89,1.89,0,0,1-.27-3.76l33.52-4.83a1.89,1.89,0,0,1,.53,3.75l-33.51,4.82A1.23,1.23,0,0,1,52.61,123.91Z"/><path class="cls-2" d="M205.44,126.74l-.27,0-33.52-4.81a1.89,1.89,0,0,1,.54-3.75L205.7,123a1.89,1.89,0,0,1-.26,3.77Z"/><path class="cls-2" d="M169.24,97.64a1.89,1.89,0,0,1-.78-3.61L199.25,80a1.89,1.89,0,1,1,1.57,3.44L170,97.47A1.81,1.81,0,0,1,169.24,97.64Z"/><path class="cls-2" d="M153.86,78.66a2,2,0,0,1-1-.3,1.9,1.9,0,0,1-.57-2.62l18.3-28.49a1.89,1.89,0,1,1,3.18,2L155.45,77.79A1.89,1.89,0,0,1,153.86,78.66Z"/><path class="cls-2" d="M156.41,208.51c-1.35-.79-3-1.68-5-2.57q-1.62-42-3.26-84.09c-.4-.18-.84-.38-1.32-.58l-.3-6.78-1-.4-1.13-.42q-.27-6.69-.52-13.38h0a14.21,14.21,0,0,0-.44-2.86,14.91,14.91,0,0,0-27.93-2.64q-.3.63-.54,1.29a15.09,15.09,0,0,0-.87,4.21h0l0,1-.48,12.42c-.8.29-1.51.56-2.12.82l-.29,6.78-1.33.58-3.26,84.08c-1.94.9-3.61,1.79-5,2.58l-.53,17.24H157ZM126.54,97.28c.42,0,.85-.06,1.28-.07h1.39c.78,0,1.55,0,2.29.08v13.82c-.74,0-1.5-.07-2.28-.07h-.32c-.8,0-1.59,0-2.36.07Zm-4.44.59v13.67h0a46.8,46.8,0,0,0-5.5,1.18l.53-13.48h0a36.73,36.73,0,0,1,5-1.37ZM134,220.34h-9.93V208.27a5,5,0,1,1,9.93,0Zm2-108.8V97.87a35.42,35.42,0,0,1,3.86,1l1.1.37.54,13.49c-1.22-.34-2.56-.66-4-.93Zm7.45,69.75h-5v-6a2.49,2.49,0,0,1,5,0Zm0-17.89h-5v-6a2.49,2.49,0,1,1,5,0Zm0-17.89h-5v-6a2.49,2.49,0,1,1,5,0Z"/><path class="cls-1" d="M328,141.73c0-31.17,29.25-50.45,56.05-50.45,21.33,0,36.92,7.79,48,16.82l-9.57,14.35c-9.3-7.25-20.78-14.22-37.6-14.22-17.91,0-35,12.86-35,33.91,0,20.5,17.09,33.77,34.86,33.77,16.82,0,28.85-7.11,38.42-14.49l10.8,12.44c-6.29,7.24-24.06,18.59-49.35,18.59C359.84,192.45,328,175.09,328,141.73Z"/><path class="cls-1" d="M528.38,152H478.2v38H456.05V94.15h22.29V135h50V94.15h22.28V190H528.38Z"/><path class="cls-1" d="M649.34,168.53l-47.44.13L591.78,190H570.72l47.17-96.11h18.05L681.06,190H659.32Zm-23.52-51.27-17,35.81H642.5L626,117.26Z"/><path class="cls-1" d="M722.44,129.56V190H700.7V94.15h12.86L779,151.71V94.15h21.47V190H790.8Z"/><path class="cls-1" d="M882.23,192.59c-29.12,0-60.15-17.23-60.15-50.31,0-34.59,31-50.86,60.15-50.86,28.85,0,59.88,18.18,59.88,51.13C942.11,175.91,911.08,192.59,882.23,192.59Zm0-84.36c-23.65,0-39.37,15-39.37,34.32,0,18.45,15.72,33.22,39.37,33.22,23.38,0,39.1-14.35,39.1-33.22C921.33,123.41,905.61,108.23,882.23,108.23Z"/><path class="cls-1" d="M985.83,129.56V190H964.09V94.15h12.85l65.48,57.56V94.15h21.47V190h-9.71Z"/><path class="cls-1" d="M1090.65,94.15h84.63v15.72h-62.49v25h53.6v15.18h-53.6v24.06h64.26V190h-86.4Z"/><path class="cls-1" d="M1210.51,156.71c-6.69,0-12-5.33-12-11.48,0-6.43,5.34-11.49,12-11.49a11.56,11.56,0,0,1,11.9,11.49A11.73,11.73,0,0,1,1210.51,156.71Z"/><path class="cls-1" d="M1245.1,190l58.1-78.07-.14-.41H1239.9V95.79H1326l.41,15.72L1267.52,190Z"/></svg>