<?xml version="1.0" encoding="utf-8"?>
<!-- Svg Vector Icons : http://www.onlinewebfonts.com/icon -->
<!DOCTYPE svg PUBLIC "-//W3C//DTD SVG 1.1//EN" "http://www.w3.org/Graphics/SVG/1.1/DTD/svg11.dtd">
<svg version="1.1" xmlns="http://www.w3.org/2000/svg" xmlns:xlink="http://www.w3.org/1999/xlink" x="0px" y="0px" viewBox="0 0 1000 1000" enable-background="new 0 0 1000 1000" xml:space="preserve" fill="#000000">
<metadata> Svg Vector Icons : http://www.onlinewebfonts.com/icon </metadata>
<g><g transform="translate(0.000000,511.000000) scale(0.100000,-0.100000)"><path fill="#000000" d="M4406.5,4990c-747.3-98.3-1492.4-371.5-2097.7-771.4C1091.7,3412.3,307.3,2142.8,123.7,683.1c-35-279.7-30.6-937.4,8.7-1212.7c212-1488,1031.4-2748.9,2296.6-3539.9c251.3-155.1,740.7-384.6,1022.6-476.4c970.2-316.8,2010.3-330,2976.1-37.1C8036-4093.5,9275-2821.8,9736-1180.8c118,426.1,161.7,762.6,163.9,1273.9c2.2,496-28.4,762.6-131.1,1188.7c-220.7,898.1-747.3,1800.5-1413.8,2414.5c-729.8,675.2-1562.4,1086-2550,1260.8C5477.2,5016.2,4740.8,5031.5,4406.5,4990z M6582.9,4089.7c572.5-229.4,1096.9-585.6,1512.1-1022.6c157.3-168.3,485.1-579.1,485.1-611.8c0-6.6-277.5-13.1-618.4-13.1h-618.4l-61.2,148.6c-209.8,493.8-565.9,1044.5-930.8,1435.6c-198.8,214.1-198.8,212-69.9,174.8C6340.4,4183.7,6475.8,4133.4,6582.9,4089.7z M3696.4,4120.3c-305.9-351.8-384.6-450.1-535.4-677.4c-157.3-236-399.9-686.1-487.3-906.8l-37.2-94h-614h-611.8l104.9,150.8C1992,3279,2732.7,3845,3534.7,4135.6c113.6,41.5,214.1,74.3,222.9,76.5C3768.5,4212.1,3740.1,4170.6,3696.4,4120.3z M4690.6,3294.3v-852.2H4011h-677.4l13.1,50.3c24,74.3,242.5,463.2,362.7,642.4c137.7,205.4,391.1,504.8,568.1,675.2c135.5,131.1,382.4,336.5,402.1,336.5C4686.2,4146.5,4690.6,3764.1,4690.6,3294.3z M5663,3836.2c332.1-310.3,655.5-740.7,880.6-1169l115.8-225.1h-666.4h-668.7v843.5V4129l85.2-67.7C5457.6,4022,5571.2,3921.5,5663,3836.2z M2431.2,1775.7c-6.6-17.5-35-157.3-65.6-310.3c-48.1-253.5-72.1-437-111.4-885l-15.3-148.6H1485H729l15.3,146.4c35,338.7,163.9,858.7,288.4,1153.7l30.6,76.5h690.5C2354.7,1808.5,2442.1,1804.1,2431.2,1775.7z M4690.6,1120.1V431.8h-906.8h-906.8v83c0,242.6,131.1,1066.3,196.7,1241.2l21.9,52.4H3893h797.6V1120.1z M6956.6,1600.9c72.1-286.2,137.7-688.3,153-944l13.1-225.1h-898.1h-900.3v688.3v688.3l791-4.4l791-6.6L6956.6,1600.9z M8973.4,1712.3c122.4-288.4,249.1-797.6,277.5-1114.4l13.1-166.1h-753.9h-756L7738.8,646c-26.2,369.3-113.6,924.3-177,1123.2c-10.9,37.2,28.4,39.3,679.6,39.3h690.5L8973.4,1712.3z M2252-271.8c4.4-39.3,19.7-190.1,32.8-336.5c19.7-218.5,83-607.5,146.4-909l13.1-61.2h-690.5h-690.5l-24,61.2c-137.7,338.7-262.2,834.7-295,1169L729-201.8h756h756L2252-271.8z M4690.6-890.2v-688.3h-795.4h-795.4l-56.8,236c-85.2,356.2-163.9,878.4-166.1,1092.6v48.1h906.8h906.8V-890.2z M7107.3-426.9c-17.5-279.7-61.2-561.6-137.7-893.7l-56.8-257.8h-795.4h-793.2v688.3v688.3h898.1h900.3L7107.3-426.9z M9250.9-359.2c-24-305.9-185.7-954.9-290.6-1158.1l-32.8-61.2h-688.3c-646.8,0-688.3,2.2-677.4,39.3c59,192.3,153,782.3,177,1136.3l15.3,201h756H9264L9250.9-359.2z M2706.5-2325.8c205.4-504.7,600.9-1116.6,976.7-1509.9c76.5-80.9,135.5-150.8,131.1-157.3c-19.7-17.5-426.1,135.5-657.7,244.7c-279.7,135.5-472,251.3-738.6,452.3c-336.5,249.1-758.2,697-970.2,1024.8l-39.3,59h624.9h627.1L2706.5-2325.8z M4690.6-3053.4c0-463.3-6.6-841.3-13.1-841.3c-61.2,0-504.8,428.3-714.5,688.3c-240.4,299.4-541.9,777.9-592.2,946.2l-15.3,48.1h666.5h668.6V-3053.4z M6572-2428.5c-284.1-563.8-710.1-1079.5-1208.4-1464c-37.1-28.4-39.3,15.3-39.3,826v854.4h677.4H6679L6572-2428.5z M8580.1-2229.6c0-37.2-310.3-423.9-500.4-622.8c-347.4-362.8-742.9-651.2-1197.4-876.2c-216.3-109.3-587.8-253.5-646.8-253.5c-13.1,0,30.6,56.8,96.1,126.7c349.6,358.4,690.5,869.7,900.3,1348.2c52.5,120.2,102.7,236,109.2,257.8c13.1,35,63.4,37.1,627.1,37.1C8304.8-2212.1,8580.1-2218.7,8580.1-2229.6z"/></g></g>
</svg>